<?xml version="1.0"?>
<!-- Generated by SVGo -->
<svg width="800" height="400"
     xmlns="http://www.w3.org/2000/svg"
     xmlns:xlink="http://www.w3.org/1999/xlink">
<rect x="0" y="0" width="800" height="400" style="fill:white" />
<rect x="10" y="300" width="56" height="90" style="stroke:none;fill:#2FCEDC" />
<text x="10" y="290" style="stroke:black; fill:black" >100</text>
<text x="20" y="380" style="stroke:white; fill:white" >Jan</text>
<rect x="76" y="70" width="56" height="320" style="stroke:none;fill:#2FCEDC" />
<text x="76" y="60" style="stroke:black; fill:black" >330</text>
<text x="86" y="380" style="stroke:white; fill:white" >Feb</text>
<rect x="142" y="170" width="56" height="220" style="stroke:none;fill:#2FCEDC" />
<text x="142" y="160" style="stroke:black; fill:black" >230</text>
<text x="152" y="380" style="stroke:white; fill:white" >Mar</text>
<rect x="208" y="260" width="56" height="130" style="stroke:none;fill:#2FCEDC" />
<text x="208" y="250" style="stroke:black; fill:black" >140</text>
<text x="218" y="380" style="stroke:white; fill:white" >Apr</text>
<rect x="274" y="100" width="56" height="290" style="stroke:none;fill:#2FCEDC" />
<text x="274" y="90" style="stroke:black; fill:black" >300</text>
<text x="284" y="380" style="stroke:white; fill:white" >May</text>
<rect x="340" y="200" width="56" height="190" style="stroke:none;fill:#2FCEDC" />
<text x="340" y="190" style="stroke:black; fill:black" >200</text>
<text x="350" y="380" style="stroke:white; fill:white" >Jun</text>
<rect x="406" y="320" width="56" height="70" style="stroke:none;fill:#2FCEDC" />
<text x="406" y="310" style="stroke:black; fill:black" >80</text>
<text x="416" y="380" style="stroke:white; fill:white" >Jul</text>
<rect x="472" y="290" width="56" height="100" style="stroke:none;fill:#2FCEDC" />
<text x="472" y="280" style="stroke:black; fill:black" >110</text>
<text x="482" y="380" style="stroke:white; fill:white" >Aug</text>
<rect x="538" y="360" width="56" height="30" style="stroke:none;fill:#2FCEDC" />
<text x="538" y="350" style="stroke:black; fill:black" >40</text>
<text x="548" y="380" style="stroke:white; fill:white" >Sep</text>
<rect x="604" y="90" width="56" height="300" style="stroke:none;fill:#2FCEDC" />
<text x="604" y="80" style="stroke:black; fill:black" >310</text>
<text x="614" y="380" style="stroke:white; fill:white" >Oct</text>
<rect x="670" y="170" width="56" height="220" style="stroke:none;fill:#2FCEDC" />
<text x="670" y="160" style="stroke:black; fill:black" >230</text>
<text x="680" y="380" style="stroke:white; fill:white" >Nov</text>
<rect x="736" y="270" width="56" height="120" style="stroke:none;fill:#2FCEDC" />
<text x="736" y="260" style="stroke:black; fill:black" >130</text>
<text x="746" y="380" style="stroke:white; fill:white" >Dec</text>
<rect x="0" y="217" width="800" height="2" style="fill:orange" />
</svg>
